<mxfile host="app.diagrams.net" modified="2021-07-17T04:05:57.310Z" agent="5.0 (Macintosh; Intel Mac OS X 10_15_7) AppleWebKit/605.1.15 (KHTML, like Gecko) Version/13.1.3 Safari/605.1.15" etag="97Rj29wHxjleEWg8XtW9" version="14.9.0" type="github">
  <diagram id="C5RBs43oDa-KdzZeNtuy" name="Page-1">
    <mxGraphModel dx="715" dy="592" grid="1" gridSize="10" guides="1" tooltips="1" connect="1" arrows="1" fold="1" page="1" pageScale="1" pageWidth="827" pageHeight="1169" math="0" shadow="0">
      <root>
        <mxCell id="WIyWlLk6GJQsqaUBKTNV-0" />
        <mxCell id="WIyWlLk6GJQsqaUBKTNV-1" parent="WIyWlLk6GJQsqaUBKTNV-0" />
        <mxCell id="xqFivTWSiboFqmNtuqxu-2" value="" style="edgeStyle=orthogonalEdgeStyle;rounded=0;orthogonalLoop=1;jettySize=auto;html=1;" edge="1" parent="WIyWlLk6GJQsqaUBKTNV-1" source="WIyWlLk6GJQsqaUBKTNV-3">
          <mxGeometry relative="1" as="geometry">
            <mxPoint x="220" y="190" as="targetPoint" />
          </mxGeometry>
        </mxCell>
        <mxCell id="WIyWlLk6GJQsqaUBKTNV-3" value="物种识别" style="rounded=1;whiteSpace=wrap;html=1;fontSize=12;glass=0;strokeWidth=1;shadow=0;" parent="WIyWlLk6GJQsqaUBKTNV-1" vertex="1">
          <mxGeometry x="160" y="80" width="120" height="40" as="geometry" />
        </mxCell>
        <mxCell id="xqFivTWSiboFqmNtuqxu-5" value="" style="edgeStyle=orthogonalEdgeStyle;rounded=0;orthogonalLoop=1;jettySize=auto;html=1;" edge="1" parent="WIyWlLk6GJQsqaUBKTNV-1" source="xqFivTWSiboFqmNtuqxu-3" target="xqFivTWSiboFqmNtuqxu-4">
          <mxGeometry relative="1" as="geometry" />
        </mxCell>
        <mxCell id="xqFivTWSiboFqmNtuqxu-3" value="点击导航栏物种识别按钮" style="rounded=0;whiteSpace=wrap;html=1;" vertex="1" parent="WIyWlLk6GJQsqaUBKTNV-1">
          <mxGeometry x="160" y="190" width="120" height="60" as="geometry" />
        </mxCell>
        <mxCell id="xqFivTWSiboFqmNtuqxu-7" value="" style="edgeStyle=orthogonalEdgeStyle;rounded=0;orthogonalLoop=1;jettySize=auto;html=1;" edge="1" parent="WIyWlLk6GJQsqaUBKTNV-1" source="xqFivTWSiboFqmNtuqxu-4" target="xqFivTWSiboFqmNtuqxu-6">
          <mxGeometry relative="1" as="geometry" />
        </mxCell>
        <mxCell id="xqFivTWSiboFqmNtuqxu-4" value="点击照相机进行图片上传" style="whiteSpace=wrap;html=1;rounded=0;" vertex="1" parent="WIyWlLk6GJQsqaUBKTNV-1">
          <mxGeometry x="160" y="330" width="120" height="60" as="geometry" />
        </mxCell>
        <mxCell id="xqFivTWSiboFqmNtuqxu-9" value="" style="edgeStyle=orthogonalEdgeStyle;rounded=0;orthogonalLoop=1;jettySize=auto;html=1;" edge="1" parent="WIyWlLk6GJQsqaUBKTNV-1" source="xqFivTWSiboFqmNtuqxu-6" target="xqFivTWSiboFqmNtuqxu-8">
          <mxGeometry relative="1" as="geometry" />
        </mxCell>
        <mxCell id="xqFivTWSiboFqmNtuqxu-13" value="是" style="edgeLabel;html=1;align=center;verticalAlign=middle;resizable=0;points=[];" vertex="1" connectable="0" parent="xqFivTWSiboFqmNtuqxu-9">
          <mxGeometry x="-0.4333" relative="1" as="geometry">
            <mxPoint as="offset" />
          </mxGeometry>
        </mxCell>
        <mxCell id="xqFivTWSiboFqmNtuqxu-11" value="" style="edgeStyle=orthogonalEdgeStyle;rounded=0;orthogonalLoop=1;jettySize=auto;html=1;" edge="1" parent="WIyWlLk6GJQsqaUBKTNV-1" source="xqFivTWSiboFqmNtuqxu-6" target="xqFivTWSiboFqmNtuqxu-10">
          <mxGeometry relative="1" as="geometry" />
        </mxCell>
        <mxCell id="xqFivTWSiboFqmNtuqxu-14" value="否" style="edgeLabel;html=1;align=center;verticalAlign=middle;resizable=0;points=[];" vertex="1" connectable="0" parent="xqFivTWSiboFqmNtuqxu-11">
          <mxGeometry x="-0.12" relative="1" as="geometry">
            <mxPoint as="offset" />
          </mxGeometry>
        </mxCell>
        <mxCell id="xqFivTWSiboFqmNtuqxu-6" value="识别是否成功" style="rhombus;whiteSpace=wrap;html=1;rounded=0;" vertex="1" parent="WIyWlLk6GJQsqaUBKTNV-1">
          <mxGeometry x="170" y="460" width="100" height="80" as="geometry" />
        </mxCell>
        <mxCell id="xqFivTWSiboFqmNtuqxu-8" value="展示该物种详细信息" style="whiteSpace=wrap;html=1;rounded=0;" vertex="1" parent="WIyWlLk6GJQsqaUBKTNV-1">
          <mxGeometry x="160" y="600" width="120" height="60" as="geometry" />
        </mxCell>
        <mxCell id="xqFivTWSiboFqmNtuqxu-10" value="&lt;p align=&quot;center&quot; style=&quot;margin: 0px ; line-height: 16px&quot;&gt;&lt;span style=&quot;font-family: &amp;#34;microsoft yahei&amp;#34; ; color: rgb(25 , 25 , 25) ; line-height: 102%&quot;&gt;&lt;font style=&quot;font-size: 13px&quot;&gt;显示“未识别成功，请重新上传“&lt;/font&gt;&lt;/span&gt;&lt;/p&gt;" style="whiteSpace=wrap;html=1;rounded=0;" vertex="1" parent="WIyWlLk6GJQsqaUBKTNV-1">
          <mxGeometry x="320" y="470" width="120" height="60" as="geometry" />
        </mxCell>
      </root>
    </mxGraphModel>
  </diagram>
</mxfile>
